<?xml version="1.0" encoding="UTF-8" standalone="no"?>
<!DOCTYPE svg PUBLIC "-//W3C//DTD SVG 1.1//EN"
 "http://www.w3.org/Graphics/SVG/1.1/DTD/svg11.dtd">
<!-- Generated by graphviz version 2.40.1 (20161225.0304)
 -->
<!-- Title: controllers_diagram Pages: 1 -->
<svg width="942pt" height="865pt"
 viewBox="0.00 0.00 941.87 865.00" xmlns="http://www.w3.org/2000/svg" xmlns:xlink="http://www.w3.org/1999/xlink">
<g id="graph0" class="graph" transform="scale(1 1) rotate(0) translate(4 861)">
<title>controllers_diagram</title>
<polygon fill="transparent" stroke="transparent" points="-4,4 -4,-861 937.8691,-861 937.8691,4 -4,4"/>
<!-- _diagram_info -->
<g id="node1" class="node">
<title>_diagram_info</title>
<text text-anchor="start" x="656" y="-580.6" font-family="Times,serif" font-size="13.00" fill="#000000">Controllers diagram</text>
<text text-anchor="start" x="656" y="-567.6" font-family="Times,serif" font-size="13.00" fill="#000000">Date: Mar 15 2018 &#45; 12:22</text>
<text text-anchor="start" x="656" y="-554.6" font-family="Times,serif" font-size="13.00" fill="#000000">Migration version: 20180310070331</text>
<text text-anchor="start" x="656" y="-541.6" font-family="Times,serif" font-size="13.00" fill="#000000">Generated by RailRoady 1.5.3</text>
<text text-anchor="start" x="656" y="-528.6" font-family="Times,serif" font-size="13.00" fill="#000000">http://railroady.prestonlee.com</text>
</g>
<!-- ActivitiesController -->
<g id="node2" class="node">
<title>ActivitiesController</title>
<path fill="none" stroke="#000000" d="M138,-126.5C138,-126.5 241.9795,-126.5 241.9795,-126.5 247.9795,-126.5 253.9795,-132.5 253.9795,-138.5 253.9795,-138.5 253.9795,-316.5 253.9795,-316.5 253.9795,-322.5 247.9795,-328.5 241.9795,-328.5 241.9795,-328.5 138,-328.5 138,-328.5 132,-328.5 126,-322.5 126,-316.5 126,-316.5 126,-138.5 126,-138.5 126,-132.5 132,-126.5 138,-126.5"/>
<text text-anchor="middle" x="189.9897" y="-313.3" font-family="Times,serif" font-size="14.00" fill="#000000">ActivitiesController</text>
<polyline fill="none" stroke="#000000" points="126,-306.5 253.9795,-306.5 "/>
<text text-anchor="start" x="134" y="-291.3" font-family="Times,serif" font-size="14.00" fill="#000000">update</text>
<text text-anchor="start" x="134" y="-277.3" font-family="Times,serif" font-size="14.00" fill="#000000">create</text>
<text text-anchor="start" x="134" y="-263.3" font-family="Times,serif" font-size="14.00" fill="#000000">destroy</text>
<text text-anchor="start" x="134" y="-249.3" font-family="Times,serif" font-size="14.00" fill="#000000">dislike_activity</text>
<text text-anchor="start" x="134" y="-235.3" font-family="Times,serif" font-size="14.00" fill="#000000">edit</text>
<text text-anchor="start" x="134" y="-221.3" font-family="Times,serif" font-size="14.00" fill="#000000">like_activity</text>
<text text-anchor="start" x="134" y="-207.3" font-family="Times,serif" font-size="14.00" fill="#000000">new</text>
<text text-anchor="start" x="134" y="-193.3" font-family="Times,serif" font-size="14.00" fill="#000000">show</text>
<text text-anchor="start" x="134" y="-179.3" font-family="Times,serif" font-size="14.00" fill="#000000">activity_params</text>
<polyline fill="none" stroke="#000000" points="126,-172.5 253.9795,-172.5 "/>
<polyline fill="none" stroke="#000000" points="126,-148.5 253.9795,-148.5 "/>
<text text-anchor="start" x="134" y="-133.3" font-family="Times,serif" font-size="14.00" fill="#000000">_layout</text>
</g>
<!-- ApplicationController -->
<g id="node3" class="node">
<title>ApplicationController</title>
<path fill="none" stroke="#000000" d="M642,-630.5C642,-630.5 815.9316,-630.5 815.9316,-630.5 821.9316,-630.5 827.9316,-636.5 827.9316,-642.5 827.9316,-642.5 827.9316,-748.5 827.9316,-748.5 827.9316,-754.5 821.9316,-760.5 815.9316,-760.5 815.9316,-760.5 642,-760.5 642,-760.5 636,-760.5 630,-754.5 630,-748.5 630,-748.5 630,-642.5 630,-642.5 630,-636.5 636,-630.5 642,-630.5"/>
<text text-anchor="middle" x="728.9658" y="-745.3" font-family="Times,serif" font-size="14.00" fill="#000000">ApplicationController</text>
<polyline fill="none" stroke="#000000" points="630,-738.5 827.9316,-738.5 "/>
<text text-anchor="start" x="638" y="-723.3" font-family="Times,serif" font-size="14.00" fill="#000000">set_current_user_for_match</text>
<polyline fill="none" stroke="#000000" points="630,-716.5 827.9316,-716.5 "/>
<text text-anchor="start" x="638" y="-701.3" font-family="Times,serif" font-size="14.00" fill="#000000">configure_permitted_parameters</text>
<text text-anchor="start" x="638" y="-687.3" font-family="Times,serif" font-size="14.00" fill="#000000">update_notifications</text>
<polyline fill="none" stroke="#000000" points="630,-680.5 827.9316,-680.5 "/>
<text text-anchor="start" x="638" y="-665.3" font-family="Times,serif" font-size="14.00" fill="#000000">_layout</text>
<text text-anchor="start" x="638" y="-651.3" font-family="Times,serif" font-size="14.00" fill="#000000">login</text>
<text text-anchor="start" x="638" y="-637.3" font-family="Times,serif" font-size="14.00" fill="#000000">set_user</text>
</g>
<!-- ChatroomsController -->
<g id="node4" class="node">
<title>ChatroomsController</title>
<path fill="none" stroke="#000000" d="M498,-396.5C498,-396.5 608.9863,-396.5 608.9863,-396.5 614.9863,-396.5 620.9863,-402.5 620.9863,-408.5 620.9863,-408.5 620.9863,-586.5 620.9863,-586.5 620.9863,-592.5 614.9863,-598.5 608.9863,-598.5 608.9863,-598.5 498,-598.5 498,-598.5 492,-598.5 486,-592.5 486,-586.5 486,-586.5 486,-408.5 486,-408.5 486,-402.5 492,-396.5 498,-396.5"/>
<text text-anchor="middle" x="553.4932" y="-583.3" font-family="Times,serif" font-size="14.00" fill="#000000">ChatroomsController</text>
<polyline fill="none" stroke="#000000" points="486,-576.5 620.9863,-576.5 "/>
<text text-anchor="start" x="494" y="-561.3" font-family="Times,serif" font-size="14.00" fill="#000000">index</text>
<text text-anchor="start" x="494" y="-547.3" font-family="Times,serif" font-size="14.00" fill="#000000">destroy</text>
<text text-anchor="start" x="494" y="-533.3" font-family="Times,serif" font-size="14.00" fill="#000000">edit</text>
<text text-anchor="start" x="494" y="-519.3" font-family="Times,serif" font-size="14.00" fill="#000000">create</text>
<text text-anchor="start" x="494" y="-505.3" font-family="Times,serif" font-size="14.00" fill="#000000">new</text>
<text text-anchor="start" x="494" y="-491.3" font-family="Times,serif" font-size="14.00" fill="#000000">show</text>
<text text-anchor="start" x="494" y="-477.3" font-family="Times,serif" font-size="14.00" fill="#000000">update</text>
<polyline fill="none" stroke="#000000" points="486,-470.5 620.9863,-470.5 "/>
<polyline fill="none" stroke="#000000" points="486,-446.5 620.9863,-446.5 "/>
<text text-anchor="start" x="494" y="-431.3" font-family="Times,serif" font-size="14.00" fill="#000000">_layout</text>
<text text-anchor="start" x="494" y="-417.3" font-family="Times,serif" font-size="14.00" fill="#000000">chatroom_params</text>
<text text-anchor="start" x="494" y="-403.3" font-family="Times,serif" font-size="14.00" fill="#000000">set_chatroom</text>
</g>
<!-- MessagesController -->
<g id="node5" class="node">
<title>MessagesController</title>
<path fill="none" stroke="#000000" d="M138,-360.5C138,-360.5 241.9795,-360.5 241.9795,-360.5 247.9795,-360.5 253.9795,-366.5 253.9795,-372.5 253.9795,-372.5 253.9795,-550.5 253.9795,-550.5 253.9795,-556.5 247.9795,-562.5 241.9795,-562.5 241.9795,-562.5 138,-562.5 138,-562.5 132,-562.5 126,-556.5 126,-550.5 126,-550.5 126,-372.5 126,-372.5 126,-366.5 132,-360.5 138,-360.5"/>
<text text-anchor="middle" x="189.9897" y="-547.3" font-family="Times,serif" font-size="14.00" fill="#000000">MessagesController</text>
<polyline fill="none" stroke="#000000" points="126,-540.5 253.9795,-540.5 "/>
<text text-anchor="start" x="134" y="-525.3" font-family="Times,serif" font-size="14.00" fill="#000000">index</text>
<text text-anchor="start" x="134" y="-511.3" font-family="Times,serif" font-size="14.00" fill="#000000">destroy</text>
<text text-anchor="start" x="134" y="-497.3" font-family="Times,serif" font-size="14.00" fill="#000000">edit</text>
<text text-anchor="start" x="134" y="-483.3" font-family="Times,serif" font-size="14.00" fill="#000000">create</text>
<text text-anchor="start" x="134" y="-469.3" font-family="Times,serif" font-size="14.00" fill="#000000">new</text>
<text text-anchor="start" x="134" y="-455.3" font-family="Times,serif" font-size="14.00" fill="#000000">show</text>
<text text-anchor="start" x="134" y="-441.3" font-family="Times,serif" font-size="14.00" fill="#000000">update</text>
<polyline fill="none" stroke="#000000" points="126,-434.5 253.9795,-434.5 "/>
<polyline fill="none" stroke="#000000" points="126,-410.5 253.9795,-410.5 "/>
<text text-anchor="start" x="134" y="-395.3" font-family="Times,serif" font-size="14.00" fill="#000000">_layout</text>
<text text-anchor="start" x="134" y="-381.3" font-family="Times,serif" font-size="14.00" fill="#000000">message_params</text>
<text text-anchor="start" x="134" y="-367.3" font-family="Times,serif" font-size="14.00" fill="#000000">set_message</text>
</g>
<!-- PagesController -->
<g id="node6" class="node">
<title>PagesController</title>
<path fill="none" stroke="#000000" d="M300,-180.5C300,-180.5 442.835,-180.5 442.835,-180.5 448.835,-180.5 454.835,-186.5 454.835,-192.5 454.835,-192.5 454.835,-538.5 454.835,-538.5 454.835,-544.5 448.835,-550.5 442.835,-550.5 442.835,-550.5 300,-550.5 300,-550.5 294,-550.5 288,-544.5 288,-538.5 288,-538.5 288,-192.5 288,-192.5 288,-186.5 294,-180.5 300,-180.5"/>
<text text-anchor="middle" x="371.4175" y="-535.3" font-family="Times,serif" font-size="14.00" fill="#000000">PagesController</text>
<polyline fill="none" stroke="#000000" points="288,-528.5 454.835,-528.5 "/>
<text text-anchor="start" x="296" y="-513.3" font-family="Times,serif" font-size="14.00" fill="#000000">unmatch_profile</text>
<text text-anchor="start" x="296" y="-499.3" font-family="Times,serif" font-size="14.00" fill="#000000">close_chatroom</text>
<text text-anchor="start" x="296" y="-485.3" font-family="Times,serif" font-size="14.00" fill="#000000">dislike_activity</text>
<text text-anchor="start" x="296" y="-471.3" font-family="Times,serif" font-size="14.00" fill="#000000">dislike_profile</text>
<text text-anchor="start" x="296" y="-457.3" font-family="Times,serif" font-size="14.00" fill="#000000">home</text>
<text text-anchor="start" x="296" y="-443.3" font-family="Times,serif" font-size="14.00" fill="#000000">home_activity_perspective</text>
<text text-anchor="start" x="296" y="-429.3" font-family="Times,serif" font-size="14.00" fill="#000000">join_activity</text>
<text text-anchor="start" x="296" y="-415.3" font-family="Times,serif" font-size="14.00" fill="#000000">leave_activity</text>
<text text-anchor="start" x="296" y="-401.3" font-family="Times,serif" font-size="14.00" fill="#000000">like_activity</text>
<text text-anchor="start" x="296" y="-387.3" font-family="Times,serif" font-size="14.00" fill="#000000">like_profile</text>
<text text-anchor="start" x="296" y="-373.3" font-family="Times,serif" font-size="14.00" fill="#000000">open_notification</text>
<text text-anchor="start" x="296" y="-359.3" font-family="Times,serif" font-size="14.00" fill="#000000">show_card</text>
<text text-anchor="start" x="296" y="-345.3" font-family="Times,serif" font-size="14.00" fill="#000000">show_chat</text>
<text text-anchor="start" x="296" y="-331.3" font-family="Times,serif" font-size="14.00" fill="#000000">show_edit_activity_card</text>
<text text-anchor="start" x="296" y="-317.3" font-family="Times,serif" font-size="14.00" fill="#000000">show_edit_profile_card</text>
<text text-anchor="start" x="296" y="-303.3" font-family="Times,serif" font-size="14.00" fill="#000000">show_new_activity_card</text>
<text text-anchor="start" x="296" y="-289.3" font-family="Times,serif" font-size="14.00" fill="#000000">show_profile_card</text>
<text text-anchor="start" x="296" y="-275.3" font-family="Times,serif" font-size="14.00" fill="#000000">unmatch_activity</text>
<text text-anchor="start" x="296" y="-261.3" font-family="Times,serif" font-size="14.00" fill="#000000">back_to_swipe</text>
<polyline fill="none" stroke="#000000" points="288,-254.5 454.835,-254.5 "/>
<polyline fill="none" stroke="#000000" points="288,-230.5 454.835,-230.5 "/>
<text text-anchor="start" x="296" y="-215.3" font-family="Times,serif" font-size="14.00" fill="#000000">_layout</text>
<text text-anchor="start" x="296" y="-201.3" font-family="Times,serif" font-size="14.00" fill="#000000">verify_activity_exists</text>
<text text-anchor="start" x="296" y="-187.3" font-family="Times,serif" font-size="14.00" fill="#000000">verify_project_owner</text>
</g>
<!-- RegistrationsController -->
<g id="node7" class="node">
<title>RegistrationsController</title>
<path fill="none" stroke="#000000" d="M750,-18.5C750,-18.5 873.4277,-18.5 873.4277,-18.5 879.4277,-18.5 885.4277,-24.5 885.4277,-30.5 885.4277,-30.5 885.4277,-124.5 885.4277,-124.5 885.4277,-130.5 879.4277,-136.5 873.4277,-136.5 873.4277,-136.5 750,-136.5 750,-136.5 744,-136.5 738,-130.5 738,-124.5 738,-124.5 738,-30.5 738,-30.5 738,-24.5 744,-18.5 750,-18.5"/>
<text text-anchor="middle" x="811.7139" y="-121.3" font-family="Times,serif" font-size="14.00" fill="#000000">RegistrationsController</text>
<polyline fill="none" stroke="#000000" points="738,-114.5 885.4277,-114.5 "/>
<text text-anchor="start" x="746" y="-99.3" font-family="Times,serif" font-size="14.00" fill="#000000">create</text>
<text text-anchor="start" x="746" y="-85.3" font-family="Times,serif" font-size="14.00" fill="#000000">new</text>
<text text-anchor="start" x="746" y="-71.3" font-family="Times,serif" font-size="14.00" fill="#000000">update</text>
<polyline fill="none" stroke="#000000" points="738,-64.5 885.4277,-64.5 "/>
<polyline fill="none" stroke="#000000" points="738,-40.5 885.4277,-40.5 "/>
<text text-anchor="start" x="746" y="-25.3" font-family="Times,serif" font-size="14.00" fill="#000000">_layout</text>
</g>
<!-- SessionsController -->
<g id="node8" class="node">
<title>SessionsController</title>
<path fill="none" stroke="#000000" d="M30,-738.5C30,-738.5 127.7793,-738.5 127.7793,-738.5 133.7793,-738.5 139.7793,-744.5 139.7793,-750.5 139.7793,-750.5 139.7793,-844.5 139.7793,-844.5 139.7793,-850.5 133.7793,-856.5 127.7793,-856.5 127.7793,-856.5 30,-856.5 30,-856.5 24,-856.5 18,-850.5 18,-844.5 18,-844.5 18,-750.5 18,-750.5 18,-744.5 24,-738.5 30,-738.5"/>
<text text-anchor="middle" x="78.8896" y="-841.3" font-family="Times,serif" font-size="14.00" fill="#000000">SessionsController</text>
<polyline fill="none" stroke="#000000" points="18,-834.5 139.7793,-834.5 "/>
<text text-anchor="start" x="26" y="-819.3" font-family="Times,serif" font-size="14.00" fill="#000000">create</text>
<text text-anchor="start" x="26" y="-805.3" font-family="Times,serif" font-size="14.00" fill="#000000">new</text>
<text text-anchor="start" x="26" y="-791.3" font-family="Times,serif" font-size="14.00" fill="#000000">override_email</text>
<polyline fill="none" stroke="#000000" points="18,-784.5 139.7793,-784.5 "/>
<polyline fill="none" stroke="#000000" points="18,-760.5 139.7793,-760.5 "/>
<text text-anchor="start" x="26" y="-745.3" font-family="Times,serif" font-size="14.00" fill="#000000">_layout</text>
</g>
<!-- Users::ConfirmationsController -->
<g id="node9" class="node">
<title>Users::ConfirmationsController</title>
<path fill="none" stroke="#000000" d="M408,-720.5C408,-720.5 577.3242,-720.5 577.3242,-720.5 583.3242,-720.5 589.3242,-726.5 589.3242,-732.5 589.3242,-732.5 589.3242,-800.5 589.3242,-800.5 589.3242,-806.5 583.3242,-812.5 577.3242,-812.5 577.3242,-812.5 408,-812.5 408,-812.5 402,-812.5 396,-806.5 396,-800.5 396,-800.5 396,-732.5 396,-732.5 396,-726.5 402,-720.5 408,-720.5"/>
<text text-anchor="middle" x="492.6621" y="-797.3" font-family="Times,serif" font-size="14.00" fill="#000000">Users::ConfirmationsController</text>
<polyline fill="none" stroke="#000000" points="396,-790.5 589.3242,-790.5 "/>
<polyline fill="none" stroke="#000000" points="396,-766.5 589.3242,-766.5 "/>
<polyline fill="none" stroke="#000000" points="396,-742.5 589.3242,-742.5 "/>
<text text-anchor="start" x="404" y="-727.3" font-family="Times,serif" font-size="14.00" fill="#000000">_layout</text>
</g>
<!-- Users::NotificationsController -->
<g id="node10" class="node">
<title>Users::NotificationsController</title>
<path fill="none" stroke="#000000" d="M390,-18.5C390,-18.5 551.5381,-18.5 551.5381,-18.5 557.5381,-18.5 563.5381,-24.5 563.5381,-30.5 563.5381,-30.5 563.5381,-96.5 563.5381,-96.5 563.5381,-102.5 557.5381,-108.5 551.5381,-108.5 551.5381,-108.5 390,-108.5 390,-108.5 384,-108.5 378,-102.5 378,-96.5 378,-96.5 378,-30.5 378,-30.5 378,-24.5 384,-18.5 390,-18.5"/>
<text text-anchor="middle" x="470.769" y="-93.3" font-family="Times,serif" font-size="14.00" fill="#000000">Users::NotificationsController</text>
<polyline fill="none" stroke="#000000" points="378,-86.5 563.5381,-86.5 "/>
<text text-anchor="start" x="386" y="-71.3" font-family="Times,serif" font-size="14.00" fill="#000000">open</text>
<polyline fill="none" stroke="#000000" points="378,-64.5 563.5381,-64.5 "/>
<polyline fill="none" stroke="#000000" points="378,-40.5 563.5381,-40.5 "/>
<text text-anchor="start" x="386" y="-25.3" font-family="Times,serif" font-size="14.00" fill="#000000">_layout</text>
</g>
<!-- Users::NotificationsWithDeviseController -->
<g id="node11" class="node">
<title>Users::NotificationsWithDeviseController</title>
<path fill="none" stroke="#000000" d="M210,-594.5C210,-594.5 437.8535,-594.5 437.8535,-594.5 443.8535,-594.5 449.8535,-600.5 449.8535,-606.5 449.8535,-606.5 449.8535,-672.5 449.8535,-672.5 449.8535,-678.5 443.8535,-684.5 437.8535,-684.5 437.8535,-684.5 210,-684.5 210,-684.5 204,-684.5 198,-678.5 198,-672.5 198,-672.5 198,-606.5 198,-606.5 198,-600.5 204,-594.5 210,-594.5"/>
<text text-anchor="middle" x="323.9268" y="-669.3" font-family="Times,serif" font-size="14.00" fill="#000000">Users::NotificationsWithDeviseController</text>
<polyline fill="none" stroke="#000000" points="198,-662.5 449.8535,-662.5 "/>
<text text-anchor="start" x="206" y="-647.3" font-family="Times,serif" font-size="14.00" fill="#000000">open</text>
<polyline fill="none" stroke="#000000" points="198,-640.5 449.8535,-640.5 "/>
<polyline fill="none" stroke="#000000" points="198,-616.5 449.8535,-616.5 "/>
<text text-anchor="start" x="206" y="-601.3" font-family="Times,serif" font-size="14.00" fill="#000000">_layout</text>
</g>
<!-- Users::OmniauthCallbacksController -->
<g id="node12" class="node">
<title>Users::OmniauthCallbacksController</title>
<path fill="none" stroke="#000000" d="M498,-144.5C498,-144.5 698.4072,-144.5 698.4072,-144.5 704.4072,-144.5 710.4072,-150.5 710.4072,-156.5 710.4072,-156.5 710.4072,-224.5 710.4072,-224.5 710.4072,-230.5 704.4072,-236.5 698.4072,-236.5 698.4072,-236.5 498,-236.5 498,-236.5 492,-236.5 486,-230.5 486,-224.5 486,-224.5 486,-156.5 486,-156.5 486,-150.5 492,-144.5 498,-144.5"/>
<text text-anchor="middle" x="598.2036" y="-221.3" font-family="Times,serif" font-size="14.00" fill="#000000">Users::OmniauthCallbacksController</text>
<polyline fill="none" stroke="#000000" points="486,-214.5 710.4072,-214.5 "/>
<polyline fill="none" stroke="#000000" points="486,-190.5 710.4072,-190.5 "/>
<polyline fill="none" stroke="#000000" points="486,-166.5 710.4072,-166.5 "/>
<text text-anchor="start" x="494" y="-151.3" font-family="Times,serif" font-size="14.00" fill="#000000">_layout</text>
</g>
<!-- Users::PasswordsController -->
<g id="node13" class="node">
<title>Users::PasswordsController</title>
<path fill="none" stroke="#000000" d="M12,-.5C12,-.5 160.3242,-.5 160.3242,-.5 166.3242,-.5 172.3242,-6.5 172.3242,-12.5 172.3242,-12.5 172.3242,-80.5 172.3242,-80.5 172.3242,-86.5 166.3242,-92.5 160.3242,-92.5 160.3242,-92.5 12,-92.5 12,-92.5 6,-92.5 0,-86.5 0,-80.5 0,-80.5 0,-12.5 0,-12.5 0,-6.5 6,-.5 12,-.5"/>
<text text-anchor="middle" x="86.1621" y="-77.3" font-family="Times,serif" font-size="14.00" fill="#000000">Users::PasswordsController</text>
<polyline fill="none" stroke="#000000" points="0,-70.5 172.3242,-70.5 "/>
<polyline fill="none" stroke="#000000" points="0,-46.5 172.3242,-46.5 "/>
<polyline fill="none" stroke="#000000" points="0,-22.5 172.3242,-22.5 "/>
<text text-anchor="start" x="8" y="-7.3" font-family="Times,serif" font-size="14.00" fill="#000000">_layout</text>
</g>
<!-- Users::RegistrationsController -->
<g id="node14" class="node">
<title>Users::RegistrationsController</title>
<path fill="none" stroke="#000000" d="M192,-720.5C192,-720.5 355.0898,-720.5 355.0898,-720.5 361.0898,-720.5 367.0898,-726.5 367.0898,-732.5 367.0898,-732.5 367.0898,-800.5 367.0898,-800.5 367.0898,-806.5 361.0898,-812.5 355.0898,-812.5 355.0898,-812.5 192,-812.5 192,-812.5 186,-812.5 180,-806.5 180,-800.5 180,-800.5 180,-732.5 180,-732.5 180,-726.5 186,-720.5 192,-720.5"/>
<text text-anchor="middle" x="273.5449" y="-797.3" font-family="Times,serif" font-size="14.00" fill="#000000">Users::RegistrationsController</text>
<polyline fill="none" stroke="#000000" points="180,-790.5 367.0898,-790.5 "/>
<polyline fill="none" stroke="#000000" points="180,-766.5 367.0898,-766.5 "/>
<polyline fill="none" stroke="#000000" points="180,-742.5 367.0898,-742.5 "/>
<text text-anchor="start" x="188" y="-727.3" font-family="Times,serif" font-size="14.00" fill="#000000">_layout</text>
</g>
<!-- Users::SessionsController -->
<g id="node15" class="node">
<title>Users::SessionsController</title>
<path fill="none" stroke="#000000" d="M12,-594.5C12,-594.5 149.4414,-594.5 149.4414,-594.5 155.4414,-594.5 161.4414,-600.5 161.4414,-606.5 161.4414,-606.5 161.4414,-674.5 161.4414,-674.5 161.4414,-680.5 155.4414,-686.5 149.4414,-686.5 149.4414,-686.5 12,-686.5 12,-686.5 6,-686.5 0,-680.5 0,-674.5 0,-674.5 0,-606.5 0,-606.5 0,-600.5 6,-594.5 12,-594.5"/>
<text text-anchor="middle" x="80.7207" y="-671.3" font-family="Times,serif" font-size="14.00" fill="#000000">Users::SessionsController</text>
<polyline fill="none" stroke="#000000" points="0,-664.5 161.4414,-664.5 "/>
<polyline fill="none" stroke="#000000" points="0,-640.5 161.4414,-640.5 "/>
<polyline fill="none" stroke="#000000" points="0,-616.5 161.4414,-616.5 "/>
<text text-anchor="start" x="8" y="-601.3" font-family="Times,serif" font-size="14.00" fill="#000000">_layout</text>
</g>
<!-- Users::SubscriptionsController -->
<g id="node16" class="node">
<title>Users::SubscriptionsController</title>
<path fill="none" stroke="#000000" d="M660,-396.5C660,-396.5 825.4346,-396.5 825.4346,-396.5 831.4346,-396.5 837.4346,-402.5 837.4346,-408.5 837.4346,-408.5 837.4346,-476.5 837.4346,-476.5 837.4346,-482.5 831.4346,-488.5 825.4346,-488.5 825.4346,-488.5 660,-488.5 660,-488.5 654,-488.5 648,-482.5 648,-476.5 648,-476.5 648,-408.5 648,-408.5 648,-402.5 654,-396.5 660,-396.5"/>
<text text-anchor="middle" x="742.7173" y="-473.3" font-family="Times,serif" font-size="14.00" fill="#000000">Users::SubscriptionsController</text>
<polyline fill="none" stroke="#000000" points="648,-466.5 837.4346,-466.5 "/>
<polyline fill="none" stroke="#000000" points="648,-442.5 837.4346,-442.5 "/>
<polyline fill="none" stroke="#000000" points="648,-418.5 837.4346,-418.5 "/>
<text text-anchor="start" x="656" y="-403.3" font-family="Times,serif" font-size="14.00" fill="#000000">_layout</text>
</g>
<!-- Users::SubscriptionsWithDeviseController -->
<g id="node17" class="node">
<title>Users::SubscriptionsWithDeviseController</title>
<path fill="none" stroke="#000000" d="M498,-270.5C498,-270.5 729.75,-270.5 729.75,-270.5 735.75,-270.5 741.75,-276.5 741.75,-282.5 741.75,-282.5 741.75,-350.5 741.75,-350.5 741.75,-356.5 735.75,-362.5 729.75,-362.5 729.75,-362.5 498,-362.5 498,-362.5 492,-362.5 486,-356.5 486,-350.5 486,-350.5 486,-282.5 486,-282.5 486,-276.5 492,-270.5 498,-270.5"/>
<text text-anchor="middle" x="613.875" y="-347.3" font-family="Times,serif" font-size="14.00" fill="#000000">Users::SubscriptionsWithDeviseController</text>
<polyline fill="none" stroke="#000000" points="486,-340.5 741.75,-340.5 "/>
<polyline fill="none" stroke="#000000" points="486,-316.5 741.75,-316.5 "/>
<polyline fill="none" stroke="#000000" points="486,-292.5 741.75,-292.5 "/>
<text text-anchor="start" x="494" y="-277.3" font-family="Times,serif" font-size="14.00" fill="#000000">_layout</text>
</g>
<!-- Users::UnlocksController -->
<g id="node18" class="node">
<title>Users::UnlocksController</title>
<path fill="none" stroke="#000000" d="M786,-180.5C786,-180.5 921.8691,-180.5 921.8691,-180.5 927.8691,-180.5 933.8691,-186.5 933.8691,-192.5 933.8691,-192.5 933.8691,-260.5 933.8691,-260.5 933.8691,-266.5 927.8691,-272.5 921.8691,-272.5 921.8691,-272.5 786,-272.5 786,-272.5 780,-272.5 774,-266.5 774,-260.5 774,-260.5 774,-192.5 774,-192.5 774,-186.5 780,-180.5 786,-180.5"/>
<text text-anchor="middle" x="853.9346" y="-257.3" font-family="Times,serif" font-size="14.00" fill="#000000">Users::UnlocksController</text>
<polyline fill="none" stroke="#000000" points="774,-250.5 933.8691,-250.5 "/>
<polyline fill="none" stroke="#000000" points="774,-226.5 933.8691,-226.5 "/>
<polyline fill="none" stroke="#000000" points="774,-202.5 933.8691,-202.5 "/>
<text text-anchor="start" x="782" y="-187.3" font-family="Times,serif" font-size="14.00" fill="#000000">_layout</text>
</g>
<!-- UsersController -->
<g id="node19" class="node">
<title>UsersController</title>
<path fill="none" stroke="#000000" d="M606,-18.5C606,-18.5 687.4277,-18.5 687.4277,-18.5 693.4277,-18.5 699.4277,-24.5 699.4277,-30.5 699.4277,-30.5 699.4277,-96.5 699.4277,-96.5 699.4277,-102.5 693.4277,-108.5 687.4277,-108.5 687.4277,-108.5 606,-108.5 606,-108.5 600,-108.5 594,-102.5 594,-96.5 594,-96.5 594,-30.5 594,-30.5 594,-24.5 600,-18.5 606,-18.5"/>
<text text-anchor="middle" x="646.7139" y="-93.3" font-family="Times,serif" font-size="14.00" fill="#000000">UsersController</text>
<polyline fill="none" stroke="#000000" points="594,-86.5 699.4277,-86.5 "/>
<text text-anchor="start" x="602" y="-71.3" font-family="Times,serif" font-size="14.00" fill="#000000">show</text>
<polyline fill="none" stroke="#000000" points="594,-64.5 699.4277,-64.5 "/>
<polyline fill="none" stroke="#000000" points="594,-40.5 699.4277,-40.5 "/>
<text text-anchor="start" x="602" y="-25.3" font-family="Times,serif" font-size="14.00" fill="#000000">_layout</text>
</g>
</g>
</svg>
