<?xml version="1.0" encoding="UTF-8" standalone="no"?>
<!DOCTYPE svg PUBLIC "-//W3C//DTD SVG 1.1//EN"
 "http://www.w3.org/Graphics/SVG/1.1/DTD/svg11.dtd">
<!-- Generated by graphviz version 2.40.1 (20161225.0304)
 -->
<!-- Title: models_diagram Pages: 1 -->
<svg width="570pt" height="386pt"
 viewBox="0.00 0.00 569.86 386.00" xmlns="http://www.w3.org/2000/svg" xmlns:xlink="http://www.w3.org/1999/xlink">
<g id="graph0" class="graph" transform="scale(1 1) rotate(0) translate(4 382)">
<title>models_diagram</title>
<polygon fill="transparent" stroke="transparent" points="-4,4 -4,-382 565.8581,-382 565.8581,4 -4,4"/>
<!-- _diagram_info -->
<g id="node1" class="node">
<title>_diagram_info</title>
<text text-anchor="start" x="77.3626" y="-363.6" font-family="Times,serif" font-size="13.00" fill="#000000">Models diagram</text>
<text text-anchor="start" x="77.3626" y="-350.6" font-family="Times,serif" font-size="13.00" fill="#000000">Date: Mar 15 2018 &#45; 12:22</text>
<text text-anchor="start" x="77.3626" y="-337.6" font-family="Times,serif" font-size="13.00" fill="#000000">Migration version: 20180310070331</text>
<text text-anchor="start" x="77.3626" y="-324.6" font-family="Times,serif" font-size="13.00" fill="#000000">Generated by RailRoady 1.5.3</text>
<text text-anchor="start" x="77.3626" y="-311.6" font-family="Times,serif" font-size="13.00" fill="#000000">http://railroady.prestonlee.com</text>
</g>
<!-- Activity -->
<g id="node2" class="node">
<title>Activity</title>
<ellipse fill="none" stroke="#000000" cx="334.0503" cy="-341.5" rx="39.18" ry="18"/>
<text text-anchor="middle" x="334.0503" y="-337.3" font-family="Times,serif" font-size="14.00" fill="#000000">Activity</text>
</g>
<!-- Chatroom -->
<g id="node4" class="node">
<title>Chatroom</title>
<ellipse fill="none" stroke="#000000" cx="261.0503" cy="-250" rx="45.4527" ry="18"/>
<text text-anchor="middle" x="261.0503" y="-245.8" font-family="Times,serif" font-size="14.00" fill="#000000">Chatroom</text>
</g>
<!-- Activity&#45;&gt;Chatroom -->
<g id="edge5" class="edge">
<title>Activity&#45;&gt;Chatroom</title>
<path fill="none" stroke="#ce089d" d="M315.1819,-317.8498C304.379,-304.3093 290.8641,-287.3694 280.041,-273.8034"/>
<ellipse fill="none" stroke="#ce089d" cx="317.8249" cy="-321.1627" rx="4" ry="4"/>
<ellipse fill="#ce089d" stroke="#ce089d" cx="277.4623" cy="-270.5712" rx="4" ry="4"/>
</g>
<!-- Like -->
<g id="node6" class="node">
<title>Like</title>
<ellipse fill="none" stroke="#000000" cx="127.0503" cy="-104" rx="27" ry="18"/>
<text text-anchor="middle" x="127.0503" y="-99.8" font-family="Times,serif" font-size="14.00" fill="#000000">Like</text>
</g>
<!-- Activity&#45;&gt;Like -->
<g id="edge1" class="edge">
<title>Activity&#45;&gt;Like</title>
<path fill="none" stroke="#23db6e" d="M308.3523,-320.375C301.3289,-315.0465 293.5745,-309.552 286.0503,-305 252.8773,-284.931 234.6819,-295.1975 207.0503,-268 167.6995,-229.2673 144.8484,-167.2551 134.2706,-131.6169"/>
<ellipse fill="none" stroke="#23db6e" cx="311.9361" cy="-323.1552" rx="4" ry="4"/>
<polygon fill="#23db6e" stroke="#23db6e" points="134.2367,-131.498 135.8201,-120.6471 132.8648,-126.6899 131.4928,-121.8818 131.4928,-121.8818 131.4928,-121.8818 132.8648,-126.6899 127.1655,-123.1166 134.2367,-131.498 134.2367,-131.498"/>
</g>
<!-- Match -->
<g id="node7" class="node">
<title>Match</title>
<ellipse fill="none" stroke="#000000" cx="401.0503" cy="-104" rx="32.8994" ry="18"/>
<text text-anchor="middle" x="401.0503" y="-99.8" font-family="Times,serif" font-size="14.00" fill="#000000">Match</text>
</g>
<!-- Activity&#45;&gt;Match -->
<g id="edge4" class="edge">
<title>Activity&#45;&gt;Match</title>
<path fill="none" stroke="#3a0489" d="M341.2924,-315.8284C353.9821,-270.8463 380.1287,-178.1624 393.221,-131.7533"/>
<ellipse fill="none" stroke="#3a0489" cx="340.1723" cy="-319.7992" rx="4" ry="4"/>
<polygon fill="#3a0489" stroke="#3a0489" points="393.2408,-131.6826 400.287,-123.2801 394.5984,-126.8704 395.956,-122.0582 395.956,-122.0582 395.956,-122.0582 394.5984,-126.8704 391.625,-120.8364 393.2408,-131.6826 393.2408,-131.6826"/>
</g>
<!-- Membership -->
<g id="node8" class="node">
<title>Membership</title>
<ellipse fill="none" stroke="#000000" cx="507.0503" cy="-104" rx="54.6162" ry="18"/>
<text text-anchor="middle" x="507.0503" y="-99.8" font-family="Times,serif" font-size="14.00" fill="#000000">Membership</text>
</g>
<!-- Activity&#45;&gt;Membership -->
<g id="edge2" class="edge">
<title>Activity&#45;&gt;Membership</title>
<path fill="none" stroke="#84b814" d="M351.2916,-317.8306C383.9025,-273.0614 454.3727,-176.3176 488.1923,-129.8889"/>
<ellipse fill="none" stroke="#84b814" cx="348.8472" cy="-321.1864" rx="4" ry="4"/>
<polygon fill="#84b814" stroke="#84b814" points="488.3667,-129.6494 497.8919,-124.2159 491.3106,-125.6079 494.2546,-121.5664 494.2546,-121.5664 494.2546,-121.5664 491.3106,-125.6079 490.6172,-118.9169 488.3667,-129.6494 488.3667,-129.6494"/>
</g>
<!-- User -->
<g id="node10" class="node">
<title>User</title>
<ellipse fill="none" stroke="#000000" cx="296.0503" cy="-177" rx="27" ry="18"/>
<text text-anchor="middle" x="296.0503" y="-172.8" font-family="Times,serif" font-size="14.00" fill="#000000">User</text>
</g>
<!-- Activity&#45;&gt;User -->
<g id="edge3" class="edge">
<title>Activity&#45;&gt;User</title>
<path fill="none" stroke="#816603" d="M330.4408,-313.3751C327.278,-291.099 322.0846,-259.2962 315.0503,-232 312.6691,-222.7599 309.4586,-212.8511 306.3549,-204.0249"/>
<polygon fill="#816603" stroke="#816603" points="330.4685,-313.5769 327.3714,-324.0963 331.149,-318.5304 331.8295,-323.4839 331.8295,-323.4839 331.8295,-323.4839 331.149,-318.5304 336.2876,-322.8714 330.4685,-313.5769 330.4685,-313.5769"/>
<polygon fill="#816603" stroke="#816603" points="306.3515,-204.0154 307.1769,-193.0806 304.6487,-199.3143 302.9459,-194.6131 302.9459,-194.6131 302.9459,-194.6131 304.6487,-199.3143 298.7149,-196.1456 306.3515,-204.0154 306.3515,-204.0154"/>
</g>
<!-- ApplicationRecord -->
<g id="node3" class="node">
<title>ApplicationRecord</title>
<ellipse fill="none" stroke="#000000" cx="468.0503" cy="-341.5" rx="77.2916" ry="18"/>
<text text-anchor="middle" x="468.0503" y="-337.3" font-family="Times,serif" font-size="14.00" fill="#000000">ApplicationRecord</text>
</g>
<!-- Message -->
<g id="node9" class="node">
<title>Message</title>
<ellipse fill="none" stroke="#000000" cx="41.0503" cy="-104" rx="41.1007" ry="18"/>
<text text-anchor="middle" x="41.0503" y="-99.8" font-family="Times,serif" font-size="14.00" fill="#000000">Message</text>
</g>
<!-- Chatroom&#45;&gt;Message -->
<g id="edge6" class="edge">
<title>Chatroom&#45;&gt;Message</title>
<path fill="none" stroke="#9845c4" d="M230.6732,-229.8407C188.9676,-202.1633 114.366,-152.6549 72.2386,-124.6977"/>
<ellipse fill="none" stroke="#9845c4" cx="234.1736" cy="-232.1636" rx="4" ry="4"/>
<polygon fill="#9845c4" stroke="#9845c4" points="72.0977,-124.6042 66.2539,-115.3252 67.9316,-121.8394 63.7656,-119.0747 63.7656,-119.0747 63.7656,-119.0747 67.9316,-121.8394 61.2773,-122.8241 72.0977,-124.6042 72.0977,-124.6042"/>
</g>
<!-- Chatroom&#45;&gt;User -->
<g id="edge7" class="edge">
<title>Chatroom&#45;&gt;User</title>
<path fill="none" stroke="#7ab23f" d="M274.0784,-222.8272C277.0791,-216.5686 280.2678,-209.9178 283.2583,-203.6804"/>
<polygon fill="#7ab23f" stroke="#7ab23f" points="274.0254,-222.9379 265.6443,-230.0095 271.8637,-227.4465 269.702,-231.9551 269.702,-231.9551 269.702,-231.9551 271.8637,-227.4465 273.7597,-233.9006 274.0254,-222.9379 274.0254,-222.9379"/>
<polygon fill="#7ab23f" stroke="#7ab23f" points="283.4158,-203.3519 291.7969,-196.2802 285.5775,-198.8433 287.7392,-194.3347 287.7392,-194.3347 287.7392,-194.3347 285.5775,-198.8433 283.6814,-192.3892 283.4158,-203.3519 283.4158,-203.3519"/>
</g>
<!-- Interest -->
<g id="node5" class="node">
<title>Interest</title>
<ellipse fill="none" stroke="#000000" cx="314.0503" cy="-104" rx="36.7489" ry="18"/>
<text text-anchor="middle" x="314.0503" y="-99.8" font-family="Times,serif" font-size="14.00" fill="#000000">Interest</text>
</g>
<!-- ActivityNotification::Notification -->
<g id="node11" class="node">
<title>ActivityNotification::Notification</title>
<ellipse fill="none" stroke="#000000" cx="206.0503" cy="-18" rx="128.5009" ry="18"/>
<text text-anchor="middle" x="206.0503" y="-13.8" font-family="Times,serif" font-size="14.00" fill="#000000">ActivityNotification::Notification</text>
</g>
<!-- Match&#45;&gt;ActivityNotification::Notification -->
<g id="edge8" class="edge">
<title>Match&#45;&gt;ActivityNotification::Notification</title>
<path fill="none" stroke="#946be8" d="M367.7888,-89.3308C336.6208,-75.5849 289.6717,-54.8792 254.3727,-39.3114"/>
<ellipse fill="none" stroke="#946be8" cx="371.4959" cy="-90.9657" rx="4" ry="4"/>
<polygon fill="#946be8" stroke="#946be8" points="254.358,-39.305 247.0242,-31.1523 249.7831,-37.2873 245.2083,-35.2697 245.2083,-35.2697 245.2083,-35.2697 249.7831,-37.2873 243.3924,-39.387 254.358,-39.305 254.358,-39.305"/>
<text text-anchor="middle" x="419.6367" y="-56.8" font-family="Times,serif" font-size="14.00" fill="#000000">generated_notifications_as_notifiable</text>
</g>
<!-- User&#45;&gt;Interest -->
<g id="edge10" class="edge">
<title>User&#45;&gt;Interest</title>
<path fill="none" stroke="#afcfef" d="M302.484,-150.9079C303.9916,-144.7936 305.6041,-138.2541 307.1319,-132.058"/>
<ellipse fill="none" stroke="#afcfef" cx="301.4574" cy="-155.0714" rx="4" ry="4"/>
<polygon fill="#afcfef" stroke="#afcfef" points="307.1956,-131.7996 313.9588,-123.1677 308.3926,-126.945 309.5897,-122.0904 309.5897,-122.0904 309.5897,-122.0904 308.3926,-126.945 305.2205,-121.013 307.1956,-131.7996 307.1956,-131.7996"/>
</g>
<!-- User&#45;&gt;Like -->
<g id="edge11" class="edge">
<title>User&#45;&gt;Like</title>
<path fill="none" stroke="#a6783b" d="M262.2674,-169.6547C238.2937,-163.7213 205.7608,-154.1826 179.0503,-141 169.7589,-136.4143 160.3168,-130.2416 152.0739,-124.2532"/>
<ellipse fill="none" stroke="#a6783b" cx="266.1599" cy="-170.5921" rx="4" ry="4"/>
<polygon fill="#a6783b" stroke="#a6783b" points="151.9628,-124.1696 146.6819,-114.559 147.9688,-121.1616 143.9747,-118.1537 143.9747,-118.1537 143.9747,-118.1537 147.9688,-121.1616 141.2676,-121.7483 151.9628,-124.1696 151.9628,-124.1696"/>
</g>
<!-- User&#45;&gt;Match -->
<g id="edge13" class="edge">
<title>User&#45;&gt;Match</title>
<path fill="none" stroke="#b3232f" d="M321.7037,-159.1648C337.0029,-148.5282 356.4637,-134.9983 372.2832,-124"/>
<ellipse fill="none" stroke="#b3232f" cx="318.1065" cy="-161.6657" rx="4" ry="4"/>
<polygon fill="#b3232f" stroke="#b3232f" points="372.437,-123.8931 383.2164,-121.8795 376.5423,-121.0389 380.6476,-118.1847 380.6476,-118.1847 380.6476,-118.1847 376.5423,-121.0389 378.0789,-114.4899 372.437,-123.8931 372.437,-123.8931"/>
</g>
<!-- User&#45;&gt;Membership -->
<g id="edge12" class="edge">
<title>User&#45;&gt;Membership</title>
<path fill="none" stroke="#dc607c" d="M327.9401,-165.967C362.9472,-153.8556 419.5102,-134.2864 459.6999,-120.3819"/>
<ellipse fill="none" stroke="#dc607c" cx="324.0349" cy="-167.3181" rx="4" ry="4"/>
<polygon fill="#dc607c" stroke="#dc607c" points="459.8355,-120.335 470.7572,-121.3181 464.5607,-118.7002 469.2859,-117.0654 469.2859,-117.0654 469.2859,-117.0654 464.5607,-118.7002 467.8146,-112.8127 459.8355,-120.335 459.8355,-120.335"/>
</g>
<!-- User&#45;&gt;Message -->
<g id="edge14" class="edge">
<title>User&#45;&gt;Message</title>
<path fill="none" stroke="#bbe4e0" d="M260.8128,-168.4971C219.7657,-158.3734 150.044,-140.4973 91.0503,-122 88.1081,-121.0775 85.0819,-120.089 82.0437,-119.0676"/>
<polygon fill="#bbe4e0" stroke="#bbe4e0" points="260.8947,-168.5171 269.5347,-175.27 265.7507,-169.7084 270.6068,-170.8996 270.6068,-170.8996 270.6068,-170.8996 265.7507,-169.7084 271.6789,-166.5292 260.8947,-168.5171 260.8947,-168.5171"/>
<polygon fill="#bbe4e0" stroke="#bbe4e0" points="81.8402,-118.9974 73.8567,-111.4797 77.114,-117.3653 72.3879,-115.7332 72.3879,-115.7332 72.3879,-115.7332 77.114,-117.3653 70.919,-119.9867 81.8402,-118.9974 81.8402,-118.9974"/>
</g>
<!-- User&#45;&gt;ActivityNotification::Notification -->
<g id="edge9" class="edge">
<title>User&#45;&gt;ActivityNotification::Notification</title>
<path fill="none" stroke="#da5dab" d="M262.8922,-167.8781C240.4763,-159.7923 212.5503,-145.5262 198.8296,-122 185.4481,-99.0553 189.7821,-68.239 195.9177,-46.1169"/>
<ellipse fill="none" stroke="#da5dab" cx="266.7719" cy="-169.1975" rx="4" ry="4"/>
<polygon fill="#da5dab" stroke="#da5dab" points="195.9866,-45.8909 203.2093,-37.6397 197.4459,-41.1086 198.9052,-36.3263 198.9052,-36.3263 198.9052,-36.3263 197.4459,-41.1086 194.6011,-35.0129 195.9866,-45.8909 195.9866,-45.8909"/>
<text text-anchor="middle" x="233.6607" y="-99.8" font-family="Times,serif" font-size="14.00" fill="#000000">notifications</text>
</g>
</g>
</svg>
