<?xml version="1.0" encoding="UTF-8" standalone="no"?>
<!DOCTYPE svg PUBLIC "-//W3C//DTD SVG 1.1//EN"
 "http://www.w3.org/Graphics/SVG/1.1/DTD/svg11.dtd">
<!-- Generated by graphviz version 2.40.1 (20161225.0304)
 -->
<!-- Title: models_diagram Pages: 1 -->
<svg width="1293pt" height="1085pt"
 viewBox="0.00 0.00 1292.72 1085.00" xmlns="http://www.w3.org/2000/svg" xmlns:xlink="http://www.w3.org/1999/xlink">
<g id="graph0" class="graph" transform="scale(1 1) rotate(0) translate(4 1081)">
<title>models_diagram</title>
<polygon fill="transparent" stroke="transparent" points="-4,4 -4,-1081 1288.7246,-1081 1288.7246,4 -4,4"/>
<!-- _diagram_info -->
<g id="node1" class="node">
<title>_diagram_info</title>
<text text-anchor="start" x="382.1746" y="-978.6" font-family="Times,serif" font-size="13.00" fill="#000000">Models diagram</text>
<text text-anchor="start" x="382.1746" y="-965.6" font-family="Times,serif" font-size="13.00" fill="#000000">Date: Mar 15 2018 &#45; 12:22</text>
<text text-anchor="start" x="382.1746" y="-952.6" font-family="Times,serif" font-size="13.00" fill="#000000">Migration version: 20180310070331</text>
<text text-anchor="start" x="382.1746" y="-939.6" font-family="Times,serif" font-size="13.00" fill="#000000">Generated by RailRoady 1.5.3</text>
<text text-anchor="start" x="382.1746" y="-926.6" font-family="Times,serif" font-size="13.00" fill="#000000">http://railroady.prestonlee.com</text>
</g>
<!-- Activity -->
<g id="node2" class="node">
<title>Activity</title>
<path fill="none" stroke="#000000" d="M611.2378,-836.5C611.2378,-836.5 892.4868,-836.5 892.4868,-836.5 898.4868,-836.5 904.4868,-842.5 904.4868,-848.5 904.4868,-848.5 904.4868,-1064.5 904.4868,-1064.5 904.4868,-1070.5 898.4868,-1076.5 892.4868,-1076.5 892.4868,-1076.5 611.2378,-1076.5 611.2378,-1076.5 605.2378,-1076.5 599.2378,-1070.5 599.2378,-1064.5 599.2378,-1064.5 599.2378,-848.5 599.2378,-848.5 599.2378,-842.5 605.2378,-836.5 611.2378,-836.5"/>
<text text-anchor="middle" x="751.8623" y="-1061.3" font-family="Times,serif" font-size="14.00" fill="#000000">Activity</text>
<polyline fill="none" stroke="#000000" points="599.2378,-1054.5 904.4868,-1054.5 "/>
<text text-anchor="start" x="607.2378" y="-1039.3" font-family="Times,serif" font-size="14.00" fill="#000000">chatroom_id :integer</text>
<text text-anchor="start" x="607.2378" y="-1025.3" font-family="Times,serif" font-size="14.00" fill="#000000">name :character varying</text>
<text text-anchor="start" x="607.2378" y="-1011.3" font-family="Times,serif" font-size="14.00" fill="#000000">project_owner_id :bigint</text>
<text text-anchor="start" x="607.2378" y="-997.3" font-family="Times,serif" font-size="14.00" fill="#000000">description :text</text>
<text text-anchor="start" x="607.2378" y="-983.3" font-family="Times,serif" font-size="14.00" fill="#000000">recruitment_deadline :timestamp without time zone</text>
<text text-anchor="start" x="607.2378" y="-969.3" font-family="Times,serif" font-size="14.00" fill="#000000">max_size :integer</text>
<text text-anchor="start" x="607.2378" y="-955.3" font-family="Times,serif" font-size="14.00" fill="#000000">requirements :character varying</text>
<text text-anchor="start" x="607.2378" y="-941.3" font-family="Times,serif" font-size="14.00" fill="#000000">created_at :timestamp without time zone</text>
<text text-anchor="start" x="607.2378" y="-927.3" font-family="Times,serif" font-size="14.00" fill="#000000">updated_at :timestamp without time zone</text>
<text text-anchor="start" x="607.2378" y="-913.3" font-family="Times,serif" font-size="14.00" fill="#000000">image_file_name :character varying</text>
<text text-anchor="start" x="607.2378" y="-899.3" font-family="Times,serif" font-size="14.00" fill="#000000">image_content_type :character varying</text>
<text text-anchor="start" x="607.2378" y="-885.3" font-family="Times,serif" font-size="14.00" fill="#000000">image_file_size :integer</text>
<text text-anchor="start" x="607.2378" y="-871.3" font-family="Times,serif" font-size="14.00" fill="#000000">image_updated_at :timestamp without time zone</text>
<text text-anchor="start" x="607.2378" y="-857.3" font-family="Times,serif" font-size="14.00" fill="#000000">team_count :integer</text>
<text text-anchor="start" x="607.2378" y="-843.3" font-family="Times,serif" font-size="14.00" fill="#000000">id :bigint</text>
</g>
<!-- Chatroom -->
<g id="node4" class="node">
<title>Chatroom</title>
<path fill="none" stroke="#000000" d="M488,-712.5C488,-712.5 711.7246,-712.5 711.7246,-712.5 717.7246,-712.5 723.7246,-718.5 723.7246,-724.5 723.7246,-724.5 723.7246,-786.5 723.7246,-786.5 723.7246,-792.5 717.7246,-798.5 711.7246,-798.5 711.7246,-798.5 488,-798.5 488,-798.5 482,-798.5 476,-792.5 476,-786.5 476,-786.5 476,-724.5 476,-724.5 476,-718.5 482,-712.5 488,-712.5"/>
<text text-anchor="middle" x="599.8623" y="-783.3" font-family="Times,serif" font-size="14.00" fill="#000000">Chatroom</text>
<polyline fill="none" stroke="#000000" points="476,-776.5 723.7246,-776.5 "/>
<text text-anchor="start" x="484" y="-761.3" font-family="Times,serif" font-size="14.00" fill="#000000">id :bigint</text>
<text text-anchor="start" x="484" y="-747.3" font-family="Times,serif" font-size="14.00" fill="#000000">created_at :timestamp without time zone</text>
<text text-anchor="start" x="484" y="-733.3" font-family="Times,serif" font-size="14.00" fill="#000000">updated_at :timestamp without time zone</text>
<text text-anchor="start" x="484" y="-719.3" font-family="Times,serif" font-size="14.00" fill="#000000">activity_id :integer</text>
</g>
<!-- Activity&#45;&gt;Chatroom -->
<g id="edge5" class="edge">
<title>Activity&#45;&gt;Chatroom</title>
<path fill="none" stroke="#a51aa3" d="M656.0696,-829.8267C649.5366,-821.1877 643.2133,-812.826 637.3118,-805.0221"/>
<ellipse fill="none" stroke="#a51aa3" cx="658.6168" cy="-833.1951" rx="4" ry="4"/>
<ellipse fill="#a51aa3" stroke="#a51aa3" cx="634.8712" cy="-801.7946" rx="4" ry="4"/>
</g>
<!-- Like -->
<g id="node6" class="node">
<title>Like</title>
<path fill="none" stroke="#000000" d="M278,-86.5C278,-86.5 501.7246,-86.5 501.7246,-86.5 507.7246,-86.5 513.7246,-92.5 513.7246,-98.5 513.7246,-98.5 513.7246,-202.5 513.7246,-202.5 513.7246,-208.5 507.7246,-214.5 501.7246,-214.5 501.7246,-214.5 278,-214.5 278,-214.5 272,-214.5 266,-208.5 266,-202.5 266,-202.5 266,-98.5 266,-98.5 266,-92.5 272,-86.5 278,-86.5"/>
<text text-anchor="middle" x="389.8623" y="-199.3" font-family="Times,serif" font-size="14.00" fill="#000000">Like</text>
<polyline fill="none" stroke="#000000" points="266,-192.5 513.7246,-192.5 "/>
<text text-anchor="start" x="274" y="-177.3" font-family="Times,serif" font-size="14.00" fill="#000000">user_id :integer</text>
<text text-anchor="start" x="274" y="-163.3" font-family="Times,serif" font-size="14.00" fill="#000000">created_at :timestamp without time zone</text>
<text text-anchor="start" x="274" y="-149.3" font-family="Times,serif" font-size="14.00" fill="#000000">updated_at :timestamp without time zone</text>
<text text-anchor="start" x="274" y="-135.3" font-family="Times,serif" font-size="14.00" fill="#000000">id :bigint</text>
<text text-anchor="start" x="274" y="-121.3" font-family="Times,serif" font-size="14.00" fill="#000000">activity_id :integer</text>
<text text-anchor="start" x="274" y="-107.3" font-family="Times,serif" font-size="14.00" fill="#000000">user_likes_activity :boolean</text>
<text text-anchor="start" x="274" y="-93.3" font-family="Times,serif" font-size="14.00" fill="#000000">activity_likes_user :boolean</text>
</g>
<!-- Activity&#45;&gt;Like -->
<g id="edge1" class="edge">
<title>Activity&#45;&gt;Like</title>
<path fill="none" stroke="#746d41" d="M591.3594,-836.2507C591.1937,-836.1669 591.028,-836.0834 590.8623,-836 539.4887,-810.1464 503.8907,-843.0062 466.8623,-799 328.1331,-634.128 352.9463,-356.6459 374.9385,-224.6175"/>
<ellipse fill="none" stroke="#746d41" cx="595.2678" cy="-838.2842" rx="4" ry="4"/>
<polygon fill="#746d41" stroke="#746d41" points="374.9658,-224.4567 381.0845,-215.3566 375.8072,-219.528 376.6486,-214.5993 376.6486,-214.5993 376.6486,-214.5993 375.8072,-219.528 372.2128,-213.8421 374.9658,-224.4567 374.9658,-224.4567"/>
</g>
<!-- Match -->
<g id="node7" class="node">
<title>Match</title>
<path fill="none" stroke="#000000" d="M914.895,-114.5C914.895,-114.5 1006.8296,-114.5 1006.8296,-114.5 1012.8296,-114.5 1018.8296,-120.5 1018.8296,-126.5 1018.8296,-126.5 1018.8296,-174.5 1018.8296,-174.5 1018.8296,-180.5 1012.8296,-186.5 1006.8296,-186.5 1006.8296,-186.5 914.895,-186.5 914.895,-186.5 908.895,-186.5 902.895,-180.5 902.895,-174.5 902.895,-174.5 902.895,-126.5 902.895,-126.5 902.895,-120.5 908.895,-114.5 914.895,-114.5"/>
<text text-anchor="middle" x="960.8623" y="-171.3" font-family="Times,serif" font-size="14.00" fill="#000000">Match</text>
<polyline fill="none" stroke="#000000" points="902.895,-164.5 1018.8296,-164.5 "/>
<text text-anchor="start" x="910.895" y="-149.3" font-family="Times,serif" font-size="14.00" fill="#000000">id :bigint</text>
<text text-anchor="start" x="910.895" y="-135.3" font-family="Times,serif" font-size="14.00" fill="#000000">user_id :bigint</text>
<text text-anchor="start" x="910.895" y="-121.3" font-family="Times,serif" font-size="14.00" fill="#000000">activity_id :bigint</text>
</g>
<!-- Activity&#45;&gt;Match -->
<g id="edge4" class="edge">
<title>Activity&#45;&gt;Match</title>
<path fill="none" stroke="#13ac86" d="M808.203,-828.751C827.5901,-781.1752 848.1089,-726.2764 862.8623,-675 912.6826,-501.8463 943.3701,-289.0338 955.2386,-196.7824"/>
<ellipse fill="none" stroke="#13ac86" cx="806.6183" cy="-832.6205" rx="4" ry="4"/>
<polygon fill="#13ac86" stroke="#13ac86" points="955.2639,-196.5827 960.9909,-187.2312 955.8954,-191.6228 956.527,-186.6628 956.527,-186.6628 956.527,-186.6628 955.8954,-191.6228 952.063,-186.0944 955.2639,-196.5827 955.2639,-196.5827"/>
</g>
<!-- Membership -->
<g id="node8" class="node">
<title>Membership</title>
<path fill="none" stroke="#000000" d="M1049,-93.5C1049,-93.5 1272.7246,-93.5 1272.7246,-93.5 1278.7246,-93.5 1284.7246,-99.5 1284.7246,-105.5 1284.7246,-105.5 1284.7246,-195.5 1284.7246,-195.5 1284.7246,-201.5 1278.7246,-207.5 1272.7246,-207.5 1272.7246,-207.5 1049,-207.5 1049,-207.5 1043,-207.5 1037,-201.5 1037,-195.5 1037,-195.5 1037,-105.5 1037,-105.5 1037,-99.5 1043,-93.5 1049,-93.5"/>
<text text-anchor="middle" x="1160.8623" y="-192.3" font-family="Times,serif" font-size="14.00" fill="#000000">Membership</text>
<polyline fill="none" stroke="#000000" points="1037,-185.5 1284.7246,-185.5 "/>
<text text-anchor="start" x="1045" y="-170.3" font-family="Times,serif" font-size="14.00" fill="#000000">id :bigint</text>
<text text-anchor="start" x="1045" y="-156.3" font-family="Times,serif" font-size="14.00" fill="#000000">user_id :integer</text>
<text text-anchor="start" x="1045" y="-142.3" font-family="Times,serif" font-size="14.00" fill="#000000">activity_id :integer</text>
<text text-anchor="start" x="1045" y="-128.3" font-family="Times,serif" font-size="14.00" fill="#000000">ownership :boolean</text>
<text text-anchor="start" x="1045" y="-114.3" font-family="Times,serif" font-size="14.00" fill="#000000">created_at :timestamp without time zone</text>
<text text-anchor="start" x="1045" y="-100.3" font-family="Times,serif" font-size="14.00" fill="#000000">updated_at :timestamp without time zone</text>
</g>
<!-- Activity&#45;&gt;Membership -->
<g id="edge2" class="edge">
<title>Activity&#45;&gt;Membership</title>
<path fill="none" stroke="#8ae0e4" d="M830.7625,-829.3147C836.9335,-819.0863 843.0292,-808.8883 848.8623,-799 881.0173,-744.4914 890.0259,-731.3347 918.8623,-675 1001.6409,-513.284 1088.4474,-317.7951 1132.1293,-217.3118"/>
<ellipse fill="none" stroke="#8ae0e4" cx="828.55" cy="-832.9743" rx="4" ry="4"/>
<polygon fill="#8ae0e4" stroke="#8ae0e4" points="1132.238,-217.0614 1140.3482,-209.6806 1134.2292,-212.475 1136.2204,-207.8886 1136.2204,-207.8886 1136.2204,-207.8886 1134.2292,-212.475 1132.0926,-206.0965 1132.238,-217.0614 1132.238,-217.0614"/>
</g>
<!-- User -->
<g id="node10" class="node">
<title>User</title>
<path fill="none" stroke="#000000" d="M546.2275,-252.5C546.2275,-252.5 841.4971,-252.5 841.4971,-252.5 847.4971,-252.5 853.4971,-258.5 853.4971,-264.5 853.4971,-264.5 853.4971,-662.5 853.4971,-662.5 853.4971,-668.5 847.4971,-674.5 841.4971,-674.5 841.4971,-674.5 546.2275,-674.5 546.2275,-674.5 540.2275,-674.5 534.2275,-668.5 534.2275,-662.5 534.2275,-662.5 534.2275,-264.5 534.2275,-264.5 534.2275,-258.5 540.2275,-252.5 546.2275,-252.5"/>
<text text-anchor="middle" x="693.8623" y="-659.3" font-family="Times,serif" font-size="14.00" fill="#000000">User</text>
<polyline fill="none" stroke="#000000" points="534.2275,-652.5 853.4971,-652.5 "/>
<text text-anchor="start" x="542.2275" y="-637.3" font-family="Times,serif" font-size="14.00" fill="#000000">cruzid :character varying</text>
<text text-anchor="start" x="542.2275" y="-623.3" font-family="Times,serif" font-size="14.00" fill="#000000">email :character varying</text>
<text text-anchor="start" x="542.2275" y="-609.3" font-family="Times,serif" font-size="14.00" fill="#000000">encrypted_password :character varying</text>
<text text-anchor="start" x="542.2275" y="-595.3" font-family="Times,serif" font-size="14.00" fill="#000000">reset_password_token :character varying</text>
<text text-anchor="start" x="542.2275" y="-581.3" font-family="Times,serif" font-size="14.00" fill="#000000">reset_password_sent_at :timestamp without time zone</text>
<text text-anchor="start" x="542.2275" y="-567.3" font-family="Times,serif" font-size="14.00" fill="#000000">remember_created_at :timestamp without time zone</text>
<text text-anchor="start" x="542.2275" y="-553.3" font-family="Times,serif" font-size="14.00" fill="#000000">sign_in_count :integer</text>
<text text-anchor="start" x="542.2275" y="-539.3" font-family="Times,serif" font-size="14.00" fill="#000000">current_sign_in_at :timestamp without time zone</text>
<text text-anchor="start" x="542.2275" y="-525.3" font-family="Times,serif" font-size="14.00" fill="#000000">last_sign_in_at :timestamp without time zone</text>
<text text-anchor="start" x="542.2275" y="-511.3" font-family="Times,serif" font-size="14.00" fill="#000000">current_sign_in_ip :inet</text>
<text text-anchor="start" x="542.2275" y="-497.3" font-family="Times,serif" font-size="14.00" fill="#000000">last_sign_in_ip :inet</text>
<text text-anchor="start" x="542.2275" y="-483.3" font-family="Times,serif" font-size="14.00" fill="#000000">confirmation_token :character varying</text>
<text text-anchor="start" x="542.2275" y="-469.3" font-family="Times,serif" font-size="14.00" fill="#000000">confirmed_at :timestamp without time zone</text>
<text text-anchor="start" x="542.2275" y="-455.3" font-family="Times,serif" font-size="14.00" fill="#000000">confirmation_sent_at :timestamp without time zone</text>
<text text-anchor="start" x="542.2275" y="-441.3" font-family="Times,serif" font-size="14.00" fill="#000000">unconfirmed_email :character varying</text>
<text text-anchor="start" x="542.2275" y="-427.3" font-family="Times,serif" font-size="14.00" fill="#000000">created_at :timestamp without time zone</text>
<text text-anchor="start" x="542.2275" y="-413.3" font-family="Times,serif" font-size="14.00" fill="#000000">updated_at :timestamp without time zone</text>
<text text-anchor="start" x="542.2275" y="-399.3" font-family="Times,serif" font-size="14.00" fill="#000000">first_name :character varying</text>
<text text-anchor="start" x="542.2275" y="-385.3" font-family="Times,serif" font-size="14.00" fill="#000000">last_name :character varying</text>
<text text-anchor="start" x="542.2275" y="-371.3" font-family="Times,serif" font-size="14.00" fill="#000000">bio :text</text>
<text text-anchor="start" x="542.2275" y="-357.3" font-family="Times,serif" font-size="14.00" fill="#000000">college_location :character varying</text>
<text text-anchor="start" x="542.2275" y="-343.3" font-family="Times,serif" font-size="14.00" fill="#000000">image_file_name :character varying</text>
<text text-anchor="start" x="542.2275" y="-329.3" font-family="Times,serif" font-size="14.00" fill="#000000">image_content_type :character varying</text>
<text text-anchor="start" x="542.2275" y="-315.3" font-family="Times,serif" font-size="14.00" fill="#000000">image_file_size :integer</text>
<text text-anchor="start" x="542.2275" y="-301.3" font-family="Times,serif" font-size="14.00" fill="#000000">image_updated_at :timestamp without time zone</text>
<text text-anchor="start" x="542.2275" y="-287.3" font-family="Times,serif" font-size="14.00" fill="#000000">major :character varying</text>
<text text-anchor="start" x="542.2275" y="-273.3" font-family="Times,serif" font-size="14.00" fill="#000000">academic_year :character varying</text>
<text text-anchor="start" x="542.2275" y="-259.3" font-family="Times,serif" font-size="14.00" fill="#000000">id :bigint</text>
</g>
<!-- Activity&#45;&gt;User -->
<g id="edge3" class="edge">
<title>Activity&#45;&gt;User</title>
<path fill="none" stroke="#deae99" d="M743.6172,-825.9925C740.7709,-789.0814 737.1865,-748.9133 732.8623,-712 731.8175,-703.0813 730.689,-693.992 729.4968,-684.8172"/>
<polygon fill="#deae99" stroke="#deae99" points="743.6435,-826.3402 739.9133,-836.6522 744.022,-831.3259 744.4004,-836.3115 744.4004,-836.3115 744.4004,-836.3115 744.022,-831.3259 748.8875,-835.9709 743.6435,-826.3402 743.6435,-826.3402"/>
<polygon fill="#deae99" stroke="#deae99" points="729.4875,-684.7461 732.6406,-674.2433 728.8334,-679.789 728.1792,-674.832 728.1792,-674.832 728.1792,-674.832 728.8334,-679.789 723.7179,-675.4207 729.4875,-684.7461 729.4875,-684.7461"/>
</g>
<!-- ApplicationRecord -->
<g id="node3" class="node">
<title>ApplicationRecord</title>
<ellipse fill="none" stroke="#000000" cx="999.8623" cy="-956.5" rx="77.2916" ry="18"/>
<text text-anchor="middle" x="999.8623" y="-952.3" font-family="Times,serif" font-size="14.00" fill="#000000">ApplicationRecord</text>
</g>
<!-- Message -->
<g id="node9" class="node">
<title>Message</title>
<path fill="none" stroke="#000000" d="M12,-93.5C12,-93.5 235.7246,-93.5 235.7246,-93.5 241.7246,-93.5 247.7246,-99.5 247.7246,-105.5 247.7246,-105.5 247.7246,-195.5 247.7246,-195.5 247.7246,-201.5 241.7246,-207.5 235.7246,-207.5 235.7246,-207.5 12,-207.5 12,-207.5 6,-207.5 0,-201.5 0,-195.5 0,-195.5 0,-105.5 0,-105.5 0,-99.5 6,-93.5 12,-93.5"/>
<text text-anchor="middle" x="123.8623" y="-192.3" font-family="Times,serif" font-size="14.00" fill="#000000">Message</text>
<polyline fill="none" stroke="#000000" points="0,-185.5 247.7246,-185.5 "/>
<text text-anchor="start" x="8" y="-170.3" font-family="Times,serif" font-size="14.00" fill="#000000">id :bigint</text>
<text text-anchor="start" x="8" y="-156.3" font-family="Times,serif" font-size="14.00" fill="#000000">created_at :timestamp without time zone</text>
<text text-anchor="start" x="8" y="-142.3" font-family="Times,serif" font-size="14.00" fill="#000000">updated_at :timestamp without time zone</text>
<text text-anchor="start" x="8" y="-128.3" font-family="Times,serif" font-size="14.00" fill="#000000">chatroom_id :integer</text>
<text text-anchor="start" x="8" y="-114.3" font-family="Times,serif" font-size="14.00" fill="#000000">content :character varying</text>
<text text-anchor="start" x="8" y="-100.3" font-family="Times,serif" font-size="14.00" fill="#000000">user_id :integer</text>
</g>
<!-- Chatroom&#45;&gt;Message -->
<g id="edge6" class="edge">
<title>Chatroom&#45;&gt;Message</title>
<path fill="none" stroke="#2c7668" d="M552.7016,-706.3969C543.2945,-696.183 533.6203,-685.3686 524.8623,-675 389.9718,-515.3039 243.7618,-316.9541 170.8181,-216.0708"/>
<ellipse fill="none" stroke="#2c7668" cx="555.4823" cy="-709.3989" rx="4" ry="4"/>
<polygon fill="#2c7668" stroke="#2c7668" points="170.6971,-215.9032 168.4897,-205.1617 167.7694,-211.8499 164.8418,-207.7966 164.8418,-207.7966 164.8418,-207.7966 167.7694,-211.8499 161.1938,-210.4315 170.6971,-215.9032 170.6971,-215.9032"/>
</g>
<!-- Chatroom&#45;&gt;User -->
<g id="edge7" class="edge">
<title>Chatroom&#45;&gt;User</title>
<path fill="none" stroke="#9033d8" d="M616.7998,-702.8857C618.6905,-697.0125 620.693,-690.792 622.7825,-684.3012"/>
<polygon fill="#9033d8" stroke="#9033d8" points="616.7967,-702.8955 609.4488,-711.0354 615.2645,-707.6549 613.7323,-712.4144 613.7323,-712.4144 613.7323,-712.4144 615.2645,-707.6549 618.0158,-713.7934 616.7967,-702.8955 616.7967,-702.8955"/>
<polygon fill="#9033d8" stroke="#9033d8" points="622.8388,-684.1259 630.1867,-675.986 624.371,-679.3665 625.9032,-674.607 625.9032,-674.607 625.9032,-674.607 624.371,-679.3665 621.6197,-673.228 622.8388,-684.1259 622.8388,-684.1259"/>
</g>
<!-- Interest -->
<g id="node5" class="node">
<title>Interest</title>
<path fill="none" stroke="#000000" d="M649,-100.5C649,-100.5 872.7246,-100.5 872.7246,-100.5 878.7246,-100.5 884.7246,-106.5 884.7246,-112.5 884.7246,-112.5 884.7246,-188.5 884.7246,-188.5 884.7246,-194.5 878.7246,-200.5 872.7246,-200.5 872.7246,-200.5 649,-200.5 649,-200.5 643,-200.5 637,-194.5 637,-188.5 637,-188.5 637,-112.5 637,-112.5 637,-106.5 643,-100.5 649,-100.5"/>
<text text-anchor="middle" x="760.8623" y="-185.3" font-family="Times,serif" font-size="14.00" fill="#000000">Interest</text>
<polyline fill="none" stroke="#000000" points="637,-178.5 884.7246,-178.5 "/>
<text text-anchor="start" x="645" y="-163.3" font-family="Times,serif" font-size="14.00" fill="#000000">id :bigint</text>
<text text-anchor="start" x="645" y="-149.3" font-family="Times,serif" font-size="14.00" fill="#000000">user_id :integer</text>
<text text-anchor="start" x="645" y="-135.3" font-family="Times,serif" font-size="14.00" fill="#000000">interest_name :character varying</text>
<text text-anchor="start" x="645" y="-121.3" font-family="Times,serif" font-size="14.00" fill="#000000">created_at :timestamp without time zone</text>
<text text-anchor="start" x="645" y="-107.3" font-family="Times,serif" font-size="14.00" fill="#000000">updated_at :timestamp without time zone</text>
</g>
<!-- ActivityNotification::Notification -->
<g id="node11" class="node">
<title>ActivityNotification::Notification</title>
<ellipse fill="none" stroke="#000000" cx="565.8623" cy="-18" rx="128.5009" ry="18"/>
<text text-anchor="middle" x="565.8623" y="-13.8" font-family="Times,serif" font-size="14.00" fill="#000000">ActivityNotification::Notification</text>
</g>
<!-- Match&#45;&gt;ActivityNotification::Notification -->
<g id="edge8" class="edge">
<title>Match&#45;&gt;ActivityNotification::Notification</title>
<path fill="none" stroke="#589108" d="M924.5682,-108.5398C915.3311,-99.9702 904.8743,-91.8088 893.8623,-86 854.955,-65.4764 747.4916,-45.4631 666.0834,-32.5239"/>
<ellipse fill="none" stroke="#589108" cx="927.5745" cy="-111.435" rx="4" ry="4"/>
<polygon fill="#589108" stroke="#589108" points="665.6666,-32.4584 656.4882,-26.4578 660.7275,-31.6807 655.7883,-30.903 655.7883,-30.903 655.7883,-30.903 660.7275,-31.6807 655.0884,-35.3483 665.6666,-32.4584 665.6666,-32.4584"/>
<text text-anchor="middle" x="946.4487" y="-56.8" font-family="Times,serif" font-size="14.00" fill="#000000">generated_notifications_as_notifiable</text>
</g>
<!-- User&#45;&gt;Interest -->
<g id="edge10" class="edge">
<title>User&#45;&gt;Interest</title>
<path fill="none" stroke="#93ae8c" d="M740.7889,-244.2759C743.3291,-232.4089 745.7459,-221.1185 747.9654,-210.7496"/>
<ellipse fill="none" stroke="#93ae8c" cx="739.9466" cy="-248.2107" rx="4" ry="4"/>
<polygon fill="#93ae8c" stroke="#93ae8c" points="748.0232,-210.4792 754.5168,-201.6426 749.0699,-205.5899 750.1165,-200.7007 750.1165,-200.7007 750.1165,-200.7007 749.0699,-205.5899 745.7162,-199.7587 748.0232,-210.4792 748.0232,-210.4792"/>
</g>
<!-- User&#45;&gt;Like -->
<g id="edge11" class="edge">
<title>User&#45;&gt;Like</title>
<path fill="none" stroke="#adfae0" d="M528.0716,-292.801C503.8805,-267.8938 480.1593,-243.4702 459.3859,-222.0818"/>
<ellipse fill="none" stroke="#adfae0" cx="531.0631" cy="-295.8811" rx="4" ry="4"/>
<polygon fill="#adfae0" stroke="#adfae0" points="459.1323,-221.8207 455.3931,-211.512 455.6487,-218.234 452.1651,-214.6473 452.1651,-214.6473 452.1651,-214.6473 455.6487,-218.234 448.937,-217.7825 459.1323,-221.8207 459.1323,-221.8207"/>
</g>
<!-- User&#45;&gt;Match -->
<g id="edge13" class="edge">
<title>User&#45;&gt;Match</title>
<path fill="none" stroke="#7e27da" d="M859.1264,-268.9798C869.5198,-256.798 879.8305,-244.7269 889.8623,-233 900.6452,-220.3951 912.3813,-206.7344 923.149,-194.224"/>
<ellipse fill="none" stroke="#7e27da" cx="856.2808" cy="-272.3157" rx="4" ry="4"/>
<polygon fill="#7e27da" stroke="#7e27da" points="923.1862,-194.1808 933.1212,-189.5391 926.4487,-190.3919 929.7111,-186.6029 929.7111,-186.6029 929.7111,-186.6029 926.4487,-190.3919 926.3011,-183.6666 923.1862,-194.1808 923.1862,-194.1808"/>
</g>
<!-- User&#45;&gt;Membership -->
<g id="edge12" class="edge">
<title>User&#45;&gt;Membership</title>
<path fill="none" stroke="#005d05" d="M860.6121,-351.7384C930.0005,-305.2318 1007.9748,-252.9707 1067.069,-213.3636"/>
<ellipse fill="none" stroke="#005d05" cx="856.9201" cy="-354.2128" rx="4" ry="4"/>
<polygon fill="#005d05" stroke="#005d05" points="1067.3407,-213.1815 1078.1529,-211.352 1071.4941,-210.3977 1075.6475,-207.614 1075.6475,-207.614 1075.6475,-207.614 1071.4941,-210.3977 1073.1421,-203.8759 1067.3407,-213.1815 1067.3407,-213.1815"/>
</g>
<!-- User&#45;&gt;Message -->
<g id="edge14" class="edge">
<title>User&#45;&gt;Message</title>
<path fill="none" stroke="#f05ebc" d="M526.0284,-294.6704C505.6983,-278.9151 484.4554,-264.2814 462.8623,-252 382.0051,-206.0113 346.0417,-241.4551 256.8623,-215 252.7798,-213.7889 248.6678,-212.4639 244.5471,-211.0447"/>
<polygon fill="#f05ebc" stroke="#f05ebc" points="526.2157,-294.8178 531.2924,-304.5377 530.1453,-297.9094 534.0749,-301.0011 534.0749,-301.0011 534.0749,-301.0011 530.1453,-297.9094 536.8574,-297.4645 526.2157,-294.8178 526.2157,-294.8178"/>
<polygon fill="#f05ebc" stroke="#f05ebc" points="244.3326,-210.9673 236.4547,-203.3391 239.6296,-209.2695 234.9267,-207.5717 234.9267,-207.5717 234.9267,-207.5717 239.6296,-209.2695 233.3987,-211.8044 244.3326,-210.9673 244.3326,-210.9673"/>
</g>
<!-- User&#45;&gt;ActivityNotification::Notification -->
<g id="edge9" class="edge">
<title>User&#45;&gt;ActivityNotification::Notification</title>
<path fill="none" stroke="#1e4a5c" d="M567.6119,-244.8946C564.1975,-234.9455 561.1752,-224.9568 558.6416,-215 543.7142,-156.3364 552.8604,-84.6972 559.9406,-46.015"/>
<ellipse fill="none" stroke="#1e4a5c" cx="568.9647" cy="-248.7224" rx="4" ry="4"/>
<polygon fill="#1e4a5c" stroke="#1e4a5c" points="559.9747,-45.8373 566.2803,-36.8657 560.9179,-40.927 561.8611,-36.0168 561.8611,-36.0168 561.8611,-36.0168 560.9179,-40.927 557.4419,-35.1679 559.9747,-45.8373 559.9747,-45.8373"/>
<text text-anchor="middle" x="593.4727" y="-146.3" font-family="Times,serif" font-size="14.00" fill="#000000">notifications</text>
</g>
</g>
</svg>
